<svg id="WM_LOGO" data-name="WM LOGO" xmlns="http://www.w3.org/2000/svg" viewBox="0 0 804.92 238">
  <title>wm-logo-en</title>
  <path d="M181.06,208.85c0,7.87-3.23,12.43-9.53,14.85-24.46,9.44-53.44,14.3-81,14.3s-56.54-4.86-81-14.3c-6.29-2.42-9.52-7-9.52-14.85V0H181.06Z" style="fill: #0051a5"/>
  <g>
    <path d="M48.56,127.27c-25.07-15.65-33.35-22.58-34.05-32.84a24.34,24.34,0,0,1,1.23-8.11l-2.36-1.57a20.73,20.73,0,0,0-3.1,10.61,25,25,0,0,0,4.23,14C18,114.8,21.74,118.2,30.86,125c9.84,7.38,16.54,16,20.41,25h1.4V139.82c13.29,7.54,25,14.64,30.77,27.32h1.4C82.58,154,75.15,143.87,48.56,127.27Z" style="fill: #fedf01"/>
    <path d="M164,167.16h-1.69c0-9.35-8.58-11.9-17.57-11.9H116.69a47.08,47.08,0,0,1,.63,15.11h-1.4c-2.6-21-14.48-31.44-31.08-42.58v9.56h-1.4c-4.41-9.87-14.12-19.13-23.3-25.7h0l-7.48-5.34v10.32h-1.4c-3.89-10.24-11-17.87-21-27C19.35,79.87,15,74,12.41,67.26a31.76,31.76,0,0,1-2-11.87c-.1-8,4-15.27,9-18V41.3a19.66,19.66,0,0,0-3.82,11.78,26.5,26.5,0,0,0,2.9,12.06c6.13,11.67,26.77,26,39.89,34.78C99.12,127.27,107.26,132,114,146.55a36.89,36.89,0,0,1,2.13,6.31c5.9-.9,27.26-4.16,31.2-4.78.75-.12,2.33-.32,3.15-.37a31,31,0,0,0,9.08-9L144,137.51c-.81,1.79-1.61,3.3-2.31,4.51h-1.27c.42-1.59.79-3.16,1.11-4.7l-4-.3v-.85l4.33-.53a78.34,78.34,0,0,0,1.3-12.52L123.44,122c-.11,2-.12,3.92-.06,5.68h-1.26c-.42-2-.75-3.91-1-5.81l-4.31-.25v-1.32l4.1-.22a88.79,88.79,0,0,1-.4-14.24L109,105.32a24,24,0,0,1,1.5,3.15c2.48,7,1.89,15.09,1.07,18.83h-1.39a42.2,42.2,0,0,0-3-12.88c-3.19-7.51-10.33-14.14-22.3-21.83v9.59h-1.4c-4-12.6-13.9-19.61-28.63-27.18-12.16-6.24-16-13.76-15.26-25.4L43.66,52c1.05,10.89,9.42,17.17,18.17,17.1a76.57,76.57,0,0,0,14.65-1.65c6.74-1.36,13-2.52,18.18-.68V60.37H90.57c-1.46,1.26-4.43,2.73-8.79,2.8C77,63.26,67.9,60.49,67.9,50.35c0-8.81,7.46-10.21,13.53-10.21,3.25,0,8.65-.13,10.48-.23a4.54,4.54,0,0,0,3-.94A3.76,3.76,0,0,0,96,36.7a24.41,24.41,0,0,0,.19-4.1V26.16H68.06V37.3l-10.65-4V30.59h5.1V26.16h-19V16.91H37.06A7.58,7.58,0,0,0,29.34,24c-.27,4.5,1.75,8.3,6.39,8.3h.83v5.39h-.83a13.91,13.91,0,0,1-14.25-14.2c0-8.44,7.19-14.86,15.88-14.86H51.08v9.25h53.36V31.58a73.56,73.56,0,0,1-.35,7.36,8.39,8.39,0,0,1-3.36,6c-1.62,1.23-4.07,1.73-8,1.75-1.3,0-5.09-.06-9.62-.33-6.08-.39-7.8,2-8,4.13a6,6,0,0,0,0,1.34,12.33,12.33,0,0,1,11.45-2.32C94.52,52.08,96.81,52.31,101,49l.43.94A10.26,10.26,0,0,1,99,52.55h3.89V73.62L115,66.36h34l16.73,8.75a5.47,5.47,0,0,1,3.24,4.36,8,8,0,0,1-1,5c-.5.82-4.4,7.22-6.46,10.64a36.53,36.53,0,0,1-4.2,53.41,18.67,18.67,0,0,1,10,7.41ZM88.25,53.69c-4.77-1-7.44-.46-10.18,2.16a9.81,9.81,0,0,0,4.89.86A7.31,7.31,0,0,0,88.25,53.69ZM85.49,84.05,98.94,76a20.22,20.22,0,0,0-9-2.19c-4.64-.08-12.46,2.06-16.25,2.64C75.36,77.59,81.37,81.43,85.49,84.05Zm60.05.85,1.86-2.61-2.88-3.86.48-.85L153.12,82l-1.77,5.37a34.2,34.2,0,0,1,4.12,2.49l5.24-8.63L147.13,74.1h-30L92.76,88.75a64.33,64.33,0,0,1,11.78,10.07,36.52,36.52,0,0,1,29.34-15.55A37.44,37.44,0,0,1,145.54,84.9Zm-2.44,34a71.41,71.41,0,0,0-1.47-12.11l-15.9-.72A98,98,0,0,0,123.58,120Zm5.35-11.8a58.58,58.58,0,0,1,.3,11.51l15.76-.84a30.34,30.34,0,0,0-2.95-10.06Zm-8-5.15a56.61,56.61,0,0,0-4.64-11.51c-.66,0-1.33,0-2,0a29.78,29.78,0,0,0-3.29.26,98.31,98.31,0,0,0-4,12.07Zm4.37-9.55a69.18,69.18,0,0,1,2.71,9.15l9.63-.53A31.06,31.06,0,0,0,144.79,92.42Zm17.72,40.63a25.77,25.77,0,0,0,2.05-8.7l-16.37-.93a56.54,56.54,0,0,1-3.26,11.84Zm-40.38-40a29.39,29.39,0,0,0-12.64,10.59l11.21-.59A72.94,72.94,0,0,1,122.13,93.05Z" style="fill: #fedf01"/>
  </g>
  <g>
    <path d="M101.33,191.35c4.57-.74,8.94-4.3,8.94-9.67,0-4.84-2.06-10.16-16.32-10.16h-24v.39a7,7,0,0,1,2.63,1.56c1.64,1.59,2.18,4,2.26,7.15v36H94.72c11,0,18.89-4.18,18.89-13.76C113.61,195.07,107.55,191.75,101.33,191.35ZM91.08,175.82c5.1,0,8.56,1.1,8.56,6.55,0,5.81-4.64,7.4-9.93,7.4H85.16v-14Zm.51,36.54H85.16V193.94H91.3c8.43,0,11.66,2.52,11.66,8.84C103,209.62,98.74,212.36,91.59,212.36Z" style="fill: #fff"/>
    <path d="M52.15,216.62h13L48.55,195.41c6.65-1.78,11.63-5.41,11.63-12,0-7.76-4.64-11.87-16.79-11.87H18.31v.39a7.72,7.72,0,0,1,2.63,1.59c1.76,1.73,2.28,4.38,2.28,7.95v35.17H33.64v-20h3.8Zm-18.51-40.8h7c5.84,0,8.89,1.71,8.89,7.92,0,5.53-4,8.81-10.39,8.81H33.64Z" style="fill: #fff"/>
    <path d="M155.74,177.7a8.69,8.69,0,0,1,3.65,3.66c.13.16.43.11.43.11l2.27-7.71s-4.07-2.93-13.76-2.93c-14.66,0-25.64,7.39-25.64,23.55,0,18.21,13.08,22.94,24.6,22.94,10.73,0,14.94-3.41,14.94-3.41v-5.29s-3.79,3.54-11.91,3.54c-6.71,0-16.56-3.07-16.77-18-.2-13.82,5.83-18.33,13.91-18.33C152,175.79,154.21,176.84,155.74,177.7Z" style="fill: #fff"/>
  </g>
  <path d="M195.76,234.39A11.32,11.32,0,1,1,207,223.08,11.26,11.26,0,0,1,195.76,234.39Zm0-20.38a9.1,9.1,0,1,0,8.7,9.07A8.83,8.83,0,0,0,195.76,214Zm.76,2.65a3.52,3.52,0,0,1,3.74,3.71c0,1.92-1.28,3.47-2.83,3.5a2.87,2.87,0,0,1,.51.55c.73.91,3,4.92,3,4.92h-3c-.48-.85-.69-1.18-1.18-2.09-1.25-2.28-1.65-2.89-2.1-3.11a1.55,1.55,0,0,0-.41-.09v5.29h-2.47V216.66Zm-2.24,5.47h.86c1.1,0,1.58-.12,1.92-.42a1.8,1.8,0,0,0,.48-1.28,1.47,1.47,0,0,0-.91-1.55,5.07,5.07,0,0,0-1.43-.18h-.92Z" style="fill: #0051a5"/>
  <rect x="271.59" width="5.67" height="237.82" style="fill: #0051a5"/>
  <g>
    <path d="M373.13,77.06h-13l-5.28-24.12A143.37,143.37,0,0,1,352,36.07c-.18,1.37-1.2,8.86-2.81,16.7l-4.95,24.29H330.69L316.55,17.33h12.61l5.11,23.34a180.77,180.77,0,0,1,3.16,19.52c.25-2.3,1.27-10.74,3.06-18.92l5.28-23.94h13.05l5.45,26.5c1.1,5.54,2.55,15.68,2.55,15.68.17-1.88,2-13.89,3.24-19.69l4.86-22.49h12.53Z" style="fill: #0051a5"/>
    <path d="M402.91,58.32v.33c0,6.74,3.33,10.57,9.2,10.57a17.08,17.08,0,0,0,11.08-4.34l4.44,6.81a25.06,25.06,0,0,1-16.45,6c-12.53,0-20.63-8.86-20.63-22.58,0-7.84,1.63-13,5.46-17.3,3.58-4,7.92-5.88,13.72-5.88,5,0,9.8,1.71,12.61,4.6,4,4.09,5.79,10,5.79,19.09v2.65Zm13.38-8.87c0-3.24-.34-4.94-1.36-6.56a5.55,5.55,0,0,0-5-2.56c-4.34,0-6.81,3.41-6.81,9.46V50h13.2Z" style="fill: #0051a5"/>
    <path d="M467.19,78.77a12.25,12.25,0,0,1-6.13-5.29,20.91,20.91,0,0,1-2.65,2.3,15,15,0,0,1-8.77,2.39c-9.72,0-15-4.94-15-13.63,0-10.23,7.08-15,21-15,.84,0,1.61,0,2.55.08V47.83c0-4.86-.94-6.47-5.11-6.47-3.67,0-7.93,1.79-12.61,4.94l-4.86-8.18a41.86,41.86,0,0,1,7.07-3.58A29.51,29.51,0,0,1,454.58,32c7.33,0,12.35,2.73,14.06,7.59.59,1.79.86,3.15.77,7.84l-.26,14.65c-.08,4.78.26,6.82,4.09,9.72Zm-9.71-21.31c-7.92,0-10.66,1.45-10.66,6.65,0,3.41,2.14,5.71,5,5.71a8.25,8.25,0,0,0,5.95-3l.18-9.38Z" style="fill: #0051a5"/>
    <path d="M492.8,77.57c-4.87,0-8.79-2.3-10.15-6-.86-2.22-1-3.58-1-9.8V29.26a111.58,111.58,0,0,0-.6-13.13l11.67-2.64c.43,2.39.6,5.2.6,11.34v34c0,7.5.08,8.53.77,9.72a2.6,2.6,0,0,0,2.3,1.19,3.78,3.78,0,0,0,1.28-.17l2,6.82A19,19,0,0,1,492.8,77.57Z" style="fill: #0051a5"/>
    <path d="M519.18,77.57c-5.8,0-10.4-2.55-11.77-6.39-.68-1.87-.76-2.72-.76-6.73V40.76H502.3V32.92h4.35a74.87,74.87,0,0,1,.43-10.31l11.59-2.9A126.46,126.46,0,0,0,518,32.92h10.23l-2.9,7.84H518v21.9c0,5.54,1,7,4.94,7a15.28,15.28,0,0,0,4.1-.85l1.44,6.81A23.76,23.76,0,0,1,519.18,77.57Z" style="fill: #0051a5"/>
    <path d="M561.37,76.55V47.23c0-4.34-1.2-6-4.43-6-2.82,0-6.48,1.7-9,4V76.55H536.32V26.1a46.23,46.23,0,0,0-.85-10l11.67-2.72a58,58,0,0,1,.76,10.65v8.69c0,1.36-.16,3.15-.16,3.66a19.09,19.09,0,0,1,12.35-4.68c5.53,0,10,2.38,11.34,6.22.84,2.47,1.11,3.92,1.11,8.09V76.55Z" style="fill: #0051a5"/>
  </g>
  <g>
    <path d="M372,166.14l-2.21-31.61c-.26-3.75-.42-6.74-.42-9.89-.69,3.41-1.2,5.54-2.22,9.12l-9.38,32.38H347.66L339.22,135c-.76-2.9-1.79-7.08-2.39-10.48,0,3.49-.17,7-.42,10.65l-2.05,30.93H322.52l5.53-59.22h15.26l7.75,29.65a91.66,91.66,0,0,1,2.05,9.38c.51-3.07,1.19-6.14,2.13-9.64l8-29.39h15.17l5.28,59.22Z" style="fill: #0051a5"/>
    <path d="M424.76,168.36a12.23,12.23,0,0,1-6.14-5.29,21.81,21.81,0,0,1-2.64,2.31,15.11,15.11,0,0,1-8.78,2.38c-9.71,0-15-4.94-15-13.63,0-10.23,7.07-15,21-15,.85,0,1.62,0,2.55.08v-1.79c0-4.85-.93-6.47-5.1-6.47-3.67,0-7.93,1.79-12.62,4.94l-4.85-8.18a41.86,41.86,0,0,1,7.07-3.58,29.51,29.51,0,0,1,11.93-2.56c7.33,0,12.35,2.73,14.06,7.59.59,1.79.85,3.15.77,7.84l-.26,14.65c-.09,4.78.26,6.82,4.09,9.72ZM415,147.05c-7.92,0-10.65,1.45-10.65,6.65,0,3.41,2.13,5.71,5,5.71a8.27,8.27,0,0,0,6-3l.18-9.38Z" style="fill: #0051a5"/>
    <path d="M462.43,166.14V137.77c0-5-.85-6.4-3.83-6.4-2.3,0-5.28,1.54-7.93,3.92v30.85H439.26V134.53a31.57,31.57,0,0,0-1.53-10.23l10.13-2.9a11.22,11.22,0,0,1,1.62,5.46,50.19,50.19,0,0,1,5-3.24,17.88,17.88,0,0,1,7.84-1.88c4.86,0,9.12,2.56,10.48,6.31a17.56,17.56,0,0,1,.85,6.22v31.87Z" style="fill: #0051a5"/>
    <path d="M515.83,168.36a12.25,12.25,0,0,1-6.13-5.29,21.81,21.81,0,0,1-2.64,2.31,15.11,15.11,0,0,1-8.78,2.38c-9.71,0-15-4.94-15-13.63,0-10.23,7.06-15,21-15,.85,0,1.61,0,2.55.08v-1.79c0-4.85-.94-6.47-5.11-6.47-3.67,0-7.93,1.79-12.61,4.94l-4.86-8.18a42.64,42.64,0,0,1,7.07-3.58,29.55,29.55,0,0,1,11.94-2.56c7.32,0,12.35,2.73,14,7.59.6,1.79.86,3.15.77,7.84l-.25,14.65c-.09,4.78.25,6.82,4.08,9.72Zm-9.71-21.31c-7.92,0-10.65,1.45-10.65,6.65,0,3.41,2.13,5.71,5,5.71a8.27,8.27,0,0,0,6-3l.17-9.38Z" style="fill: #0051a5"/>
    <path d="M565.54,130.52a23.24,23.24,0,0,1-3-.26,10.52,10.52,0,0,1,2.55,7.16c0,7.5-6.81,13-16.1,13a13.06,13.06,0,0,1-1.7-.09c-2.9,1.36-4.52,2.39-4.52,3.58,0,.6.68,1,1.87,1l6.14.09c6.64.08,10.14,1.11,13.21,3.92a11.91,11.91,0,0,1,3.75,9.29,12.43,12.43,0,0,1-3.49,9c-3.84,4.09-10.41,5.62-17.22,5.62-6.22,0-12.61-1-16.53-4.68a10.24,10.24,0,0,1-3.58-7.76,8.72,8.72,0,0,1,1-4.43h10.57a6.1,6.1,0,0,0-.51,2.81c0,3.5,2.9,5.37,8.18,5.37,2.9,0,5.37-.34,7.16-1.45a5.3,5.3,0,0,0,2.81-4.43c0-3.92-3.5-5.11-8-5.2L543.3,163c-5.11-.09-8.43-.51-10.48-1.37s-3.32-2.72-3.32-5.71c0-2.81.85-5.45,8-7.32-6.3-1.62-9.37-5.63-9.37-12.1,0-9,7.24-14.75,18.41-14.75a31.28,31.28,0,0,1,7.84,1.11,22.64,22.64,0,0,0,5.37.94,13.75,13.75,0,0,0,9-3.75l4.77,7.25A10.86,10.86,0,0,1,565.54,130.52Zm-19.08-.42c-4.35,0-6.83,2.38-6.83,6.47,0,4.43,2.73,6.22,6.74,6.22,4.51,0,7-2.21,7-6.22S550.8,130.1,546.46,130.1Z" style="fill: #0051a5"/>
    <path d="M588.79,147.91v.34c0,6.73,3.32,10.56,9.2,10.56a17.1,17.1,0,0,0,11.08-4.34l4.43,6.81a25,25,0,0,1-16.45,6.06c-12.52,0-20.62-8.87-20.62-22.59,0-7.84,1.62-13,5.45-17.29,3.58-4,7.93-5.89,13.73-5.89,5,0,9.8,1.71,12.6,4.6,4,4.09,5.8,10,5.8,19.09v2.65ZM602.17,139c0-3.23-.35-4.94-1.37-6.56a5.52,5.52,0,0,0-5-2.55c-4.34,0-6.81,3.4-6.81,9.45v.17h13.21Z" style="fill: #0051a5"/>
    <path d="M667.91,166.14v-28.8c0-5.2-.59-6.22-3.58-6.22-2.13,0-5.11,1.45-7.58,3.66v31.36H645.93V137.77c0-5.46-.77-6.74-3.92-6.74a12.09,12.09,0,0,0-7.5,3.33v31.78H623.35V135.72c0-6.31-.43-9-1.63-11.16L632,121.74a11.33,11.33,0,0,1,1.53,4.43,15,15,0,0,1,10.65-4.43,11.87,11.87,0,0,1,8.87,3.58,14.81,14.81,0,0,1,1.7,2.14c4-4.1,7.58-5.72,12.35-5.72a13.56,13.56,0,0,1,8.62,2.73c2.47,2.13,3.23,4.69,3.23,10.65v31Z" style="fill: #0051a5"/>
    <path d="M701.39,147.91v.34c0,6.73,3.32,10.56,9.2,10.56a17.1,17.1,0,0,0,11.08-4.34l4.43,6.81a25,25,0,0,1-16.45,6.06c-12.53,0-20.62-8.87-20.62-22.59,0-7.84,1.62-13,5.45-17.29,3.58-4,7.93-5.89,13.73-5.89,5,0,9.79,1.71,12.6,4.6,4,4.09,5.8,10,5.8,19.09v2.65ZM714.76,139c0-3.23-.34-4.94-1.36-6.56a5.52,5.52,0,0,0-5-2.55c-4.35,0-6.82,3.4-6.82,9.45v.17h13.2Z" style="fill: #0051a5"/>
    <path d="M759.25,166.14V137.77c0-5-.86-6.4-3.83-6.4-2.3,0-5.29,1.54-7.93,3.92v30.85H736.07V134.53a31.57,31.57,0,0,0-1.53-10.23l10.14-2.9a11.21,11.21,0,0,1,1.61,5.46,50.19,50.19,0,0,1,5-3.24,17.91,17.91,0,0,1,7.84-1.88c4.86,0,9.12,2.56,10.48,6.31a17.53,17.53,0,0,1,.86,6.22v31.87Z" style="fill: #0051a5"/>
    <path d="M795.63,167.16c-5.79,0-10.39-2.55-11.76-6.39-.68-1.87-.76-2.72-.76-6.73V130.35h-4.35v-7.84h4.35a76.64,76.64,0,0,1,.42-10.31l11.59-2.9a132.25,132.25,0,0,0-.68,13.21h10.23l-2.9,7.84h-7.33v21.9c0,5.54,1,7,4.94,7a15.09,15.09,0,0,0,4.09-.85l1.45,6.81A23.8,23.8,0,0,1,795.63,167.16Z" style="fill: #0051a5"/>
  </g>
</svg>
